<?xml version="1.0" encoding="UTF-8"?>
<!DOCTYPE svg PUBLIC "-//W3C//DTD SVG 1.1//EN" "http://www.w3.org/Graphics/SVG/1.1/DTD/svg11.dtd">
<!-- Creator: CorelDRAW -->
<svg xmlns="http://www.w3.org/2000/svg" xml:space="preserve" width="20mm" height="20mm" version="1.1" style="shape-rendering:geometricPrecision; text-rendering:geometricPrecision; image-rendering:optimizeQuality; fill-rule:evenodd; clip-rule:evenodd"
viewBox="0 0 2000 2000"
 xmlns:xlink="http://www.w3.org/1999/xlink"
 xmlns:xodm="http://www.corel.com/coreldraw/odm/2003">
 <defs>
  <style type="text/css">
   <![CDATA[
    .fil0 {fill:black}
    .fil1 {fill:#FEFEFE}
   ]]>
  </style>
 </defs>
 <g id="Layer_x0020_1">
  <metadata id="CorelCorpID_0Corel-Layer"/>
  <g id="_1954853775152">
   <path class="fil0" d="M2000 250l0 1500.03c0,137.45 -109.17,249.97 -242.62,249.97l-1514.71 0c-133.45,0 -242.67,-112.52 -242.67,-249.97l0 -1500.03c0,-137.53 109.22,-250 242.67,-250l1514.71 0c133.45,0 242.62,112.47 242.62,250z"/>
   <path class="fil1" d="M652.32 878.1l0 243.8c0,22.33 -18.27,40.6 -40.6,40.6l-243.8 0c-22.32,0 -40.6,-18.27 -40.6,-40.6l0 -243.8c0,-22.35 18.28,-40.63 40.6,-40.63l243.8 0c22.33,0 40.6,18.28 40.6,40.63z"/>
   <path class="fil1" d="M721.72 1336.23l0 347.92c0,31.88 -26.07,57.95 -57.95,57.95l-347.9 0c-31.87,0 -57.95,-26.07 -57.95,-57.95l0 -347.92c0,-31.88 26.08,-57.95 57.95,-57.95l347.9 0c31.88,0 57.95,26.07 57.95,57.95z"/>
   <path class="fil1" d="M1162.53 367.9l0 243.8c0,22.32 -18.28,40.6 -40.63,40.6l-243.78 0c-22.32,0 -40.6,-18.28 -40.6,-40.6l0 -243.8c0,-22.35 18.28,-40.6 40.6,-40.6l243.78 0c22.35,0 40.63,18.25 40.63,40.6z"/>
   <path class="fil1" d="M1162.53 1388.28l0 243.82c0,22.33 -18.28,40.6 -40.63,40.6l-243.78 0c-22.32,0 -40.6,-18.27 -40.6,-40.6l0 -243.82c0,-22.33 18.28,-40.6 40.6,-40.6l243.78 0c22.35,0 40.63,18.27 40.63,40.6z"/>
   <path class="fil1" d="M1742.13 315.82l0 347.93c0,31.87 -26.08,57.95 -57.95,57.95l-347.93 0c-31.87,0 -57.95,-26.08 -57.95,-57.95l0 -347.93c0,-31.87 26.08,-57.92 57.95,-57.92l347.93 0c31.87,0 57.95,26.05 57.95,57.92z"/>
   <path class="fil1" d="M1672.73 878.1l0 243.8c0,22.33 -18.28,40.6 -40.6,40.6l-243.8 0c-22.35,0 -40.63,-18.27 -40.63,-40.6l0 -243.8c0,-22.35 18.28,-40.63 40.63,-40.63l243.8 0c22.32,0 40.6,18.28 40.6,40.63z"/>
   <path class="fil1" d="M1250 812.45l0 375.05c0,34.38 -28.1,62.48 -62.45,62.48l-375.05 0c-34.38,0 -62.48,-28.1 -62.48,-62.48l0 -375.05c0,-34.35 28.1,-62.48 62.48,-62.48l375.05 0c34.35,0 62.45,28.13 62.45,62.48z"/>
  </g>
 </g>
</svg>
